<svg xmlns="http://www.w3.org/2000/svg" width="1600" height="1000" viewBox="0 0 1600 1000">
<defs>
  <linearGradient id="g" x1="0" y1="0" x2="1" y2="1">
    <stop offset="0%" stop-color="#dfeafb"/>
    <stop offset="100%" stop-color="#ffffff"/>
  </linearGradient>
</defs>
<rect width="1600" height="1000" rx="32" fill="url(#g)"/>
<rect x="48" y="48" width="1504" height="904" rx="24" fill="none" stroke="#0f4f98" stroke-opacity=".18" stroke-width="4"/>
<path d="M80 820 H1520" stroke="#0f4f98" stroke-opacity=".12" stroke-width="6"/>
<path d="M80 190 H1520" stroke="#0f4f98" stroke-opacity=".08" stroke-width="4"/>
<circle cx="1320" cy="220" r="150" fill="#0f4f98" fill-opacity=".05"/>
<circle cx="200" cy="780" r="180" fill="#0f4f98" fill-opacity=".05"/>
<text x="100" y="220" fill="#0f4f98" font-size="86" font-family="Arial, Helvetica, sans-serif" font-weight="700">Azamat</text>
<text x="100" y="292" fill="#31557f" font-size="34" font-family="Arial, Helvetica, sans-serif">Chief engineer</text>
<g transform="translate(100,390)">
  <rect width="480" height="250" rx="24" fill="#fff" stroke="#0f4f98" stroke-opacity=".14"/>
  <path d="M38 160 L110 110 L192 145 L300 70 L430 120" fill="none" stroke="#0f4f98" stroke-width="12" stroke-linecap="round"/>
  <circle cx="110" cy="110" r="10" fill="#0f4f98"/>
  <circle cx="192" cy="145" r="10" fill="#0f4f98"/>
  <circle cx="300" cy="70" r="10" fill="#0f4f98"/>
  <circle cx="430" cy="120" r="10" fill="#0f4f98"/>
  <text x="38" y="54" fill="#31557f" font-size="28" font-family="Arial">GRID project visual</text>
</g>
<g transform="translate(720,360)">
  <rect width="680" height="330" rx="28" fill="#0f4f98" fill-opacity=".06"/>
  <rect x="36" y="42" width="608" height="246" rx="18" fill="#fff" stroke="#0f4f98" stroke-opacity=".12"/>
  <rect x="72" y="90" width="220" height="18" rx="9" fill="#0f4f98" fill-opacity=".14"/>
  <rect x="72" y="130" width="420" height="16" rx="8" fill="#0f4f98" fill-opacity=".10"/>
  <rect x="72" y="165" width="540" height="16" rx="8" fill="#0f4f98" fill-opacity=".10"/>
  <rect x="72" y="200" width="300" height="16" rx="8" fill="#0f4f98" fill-opacity=".10"/>
</g>
</svg>